<svg xmlns="http://www.w3.org/2000/svg" viewBox="0 0 200 200"><defs><style>.cls-1{fill:#172852;}.cls-2,.cls-3{fill:#ffd83d;}.cls-3,.cls-4{fill-rule:evenodd;}.cls-4{fill:#fb6e04;}</style></defs><g id="图层_2" data-name="图层 2"><g id="图层_1-2" data-name="图层 1"><circle class="cls-1" cx="100" cy="100" r="100"/><path class="cls-2" d="M135.07,121.18c-42.5,0-71.94-31.51-71.94-67.5,0-.66.09-1.29.11-2a60.53,60.53,0,1,0,95,65.64A72.21,72.21,0,0,1,135.07,121.18Z"/><path class="cls-3" d="M158.22,91.27s2.14-31-33.79-45.56c-28.89-11.66-51.9-3.61-51.86,6,0,6,15,19,41.67,22.87C138,78.07,158.22,91.27,158.22,91.27Z"/><path class="cls-4" d="M123,76.33s22.7,29.94,30.85,31.24,7-10,4.35-16.3S127.54,75.66,123,76.33Z"/></g></g></svg>